<svg width="86" height="26" viewBox="0 0 86 26" fill="white" xmlns="http://www.w3.org/2000/svg">
<g clip-path="url(#clip0_2064_912)">
<path d="M35.5012 16.5384L35.4472 17.726H22.2425C22.3457 19.1384 22.8174 20.2184 23.6627 20.9662C24.508 21.7139 25.5498 22.0854 26.798 22.0854C27.6973 22.0854 28.4836 21.8801 29.147 21.4745C29.8105 21.0688 30.3117 20.4726 30.6459 19.6906L35.2211 20.3651C34.6314 22.144 33.5896 23.532 32.1005 24.5192C30.6115 25.5064 28.8522 26 26.8324 26C23.9182 26 21.6085 25.1887 19.8934 23.5613C18.1784 21.9339 17.3184 19.6808 17.3184 16.7974C17.3184 13.9139 18.1784 11.6805 19.8984 10.0335C21.6184 8.38649 23.8789 7.56055 26.6752 7.56055C29.4714 7.56055 31.4617 8.31318 33.0686 9.81844C34.6756 11.3237 35.4816 13.5621 35.4963 16.5384H35.5012ZM26.7145 11.0745C24.2868 11.0745 22.842 12.2132 22.3801 14.4857H30.5574C30.4297 13.3812 30.0218 12.5357 29.3289 11.9542C28.636 11.3677 27.7612 11.0745 26.7096 11.0745H26.7145Z" fill="#white"/>
<path d="M44.1258 26C41.3099 26 39.01 25.1496 37.2261 23.444C35.4423 21.7384 34.5479 19.5147 34.5479 16.773C34.5479 14.0312 35.4373 11.7978 37.2163 10.1019C38.9953 8.41092 41.3001 7.56055 44.1258 7.56055C46.4208 7.56055 48.3472 8.13235 49.9148 9.27107C51.4776 10.4098 52.4752 12.0177 52.9027 14.0948L48.2784 14.5981C48.013 13.5621 47.5117 12.785 46.7844 12.2669C46.0522 11.7489 45.1529 11.4899 44.0717 11.4899C42.7252 11.4899 41.6392 11.9737 40.8037 12.9414C39.9683 13.909 39.5506 15.1895 39.5506 16.7778C39.5506 18.3662 39.9683 19.632 40.8037 20.6045C41.6342 21.5771 42.7252 22.0658 44.0717 22.0658C45.148 22.0658 46.0522 21.8068 46.7746 21.2887C47.497 20.7707 47.9982 19.9936 48.2784 18.9575L52.9027 19.4609C52.4752 21.5233 51.4677 23.1312 49.8853 24.2846C48.3029 25.438 46.3864 26.0147 44.1258 26.0147V26Z" fill="#white"/>
<path d="M65.6796 25.5748C65.2177 25.5748 64.7852 25.35 64.5248 24.9736C63.3552 23.2973 60.1167 18.718 59.9496 18.4785C59.8906 18.3955 59.7678 18.3857 59.699 18.459L57.4531 20.8146V15.5364C57.6595 15.2774 69.96 3.59207 70.2155 3.33793C70.4465 3.10335 70.82 3.39658 70.6529 3.67515L63.2569 14.4075C62.6426 15.3018 62.6475 16.4797 63.2765 17.3691C64.741 19.4364 67.3161 23.0383 68.5152 24.7195C68.7707 25.0812 68.5152 25.5748 68.068 25.5748H65.6846H65.6796Z" fill="#white"/>
<path d="M61.8124 7.73643C62.898 7.73643 63.7781 6.8612 63.7781 5.78155C63.7781 4.70189 62.898 3.82666 61.8124 3.82666C60.7268 3.82666 59.8467 4.70189 59.8467 5.78155C59.8467 6.8612 60.7268 7.73643 61.8124 7.73643Z" fill="#white"/>
<path d="M57.8115 25.5748H52.9365V0H57.8115V25.5748Z" fill="white"/>
<path d="M79.4444 7.73645C81.5527 7.73645 83.1744 8.25938 84.3047 9.31013C85.4349 10.3609 86.0001 11.8564 86.0001 13.7966V25.5748H81.0514V14.8522C81.0514 13.7526 80.7565 12.9462 80.1717 12.4331C79.582 11.9199 78.8301 11.6658 77.9063 11.6658C77.3706 11.6658 76.8792 11.7391 76.4369 11.8857C75.9897 12.0323 75.5818 12.262 75.2034 12.5748C74.8299 12.8876 74.5351 13.3274 74.3238 13.8943C74.1124 14.4613 73.9994 15.1357 73.9896 15.9225V25.5748H69.0605V8.07856H73.9896V10.0188C75.2919 8.49886 77.1101 7.73645 79.4493 7.73645H79.4444Z" fill="#white"/>
<path d="M10.1234 8.13233C11.2537 8.13233 12.3201 8.33759 13.3226 8.74812C14.3301 9.15865 15.2097 9.74022 15.9616 10.488C16.7184 11.2357 17.313 12.1789 17.7455 13.3128C18.1829 14.4466 18.3991 15.6977 18.3991 17.0613C18.3991 18.4248 18.1829 19.6759 17.7455 20.8098C17.3081 21.9436 16.7135 22.8868 15.9616 23.6346C15.2097 24.3823 14.3301 24.9639 13.3226 25.3744C12.3152 25.785 11.2488 25.9902 10.1234 25.9902C8.91451 25.9902 7.82846 25.7605 6.86526 25.2962C5.89714 24.8368 5.17474 24.1868 4.69314 23.356L4.5752 25.5895H0V0H4.82583V10.5515C5.31726 9.78421 6.03474 9.18797 6.97829 8.76767C7.92183 8.34737 8.96857 8.13233 10.1234 8.13233ZM8.99806 22.0169C10.3151 22.0169 11.411 21.5673 12.2759 20.668C13.1408 19.7688 13.5733 18.5665 13.5733 17.0662C13.5733 15.5658 13.1408 14.3489 12.2759 13.4496C11.411 12.5504 10.32 12.1008 8.99806 12.1008C7.67611 12.1008 6.61954 12.5602 5.7448 13.4741C4.87497 14.3929 4.4376 15.5902 4.4376 17.0662C4.4376 18.5421 4.87006 19.7395 5.73497 20.6485C6.59989 21.5575 7.68594 22.0169 8.99314 22.0169H8.99806Z" fill="#white"/>
</g>
<defs>
<clipPath id="clip0_2064_912">
<rect width="86" height="26" fill="white"/>
</clipPath>
</defs>
</svg>
