<svg width="86" height="28" viewBox="0 0 86 28" fill="none" xmlns="http://www.w3.org/2000/svg">
<g clip-path="url(#clip0_42_538)">
<path d="M66.1892 26.9691C65.4363 26.9691 64.731 26.6029 64.297 25.9789C62.9338 24.0257 59.9971 19.8547 59.8343 19.6173C59.7733 19.5292 59.6512 19.5224 59.5766 19.597L57.2639 22.0386V16.5722C57.4742 16.3009 70.1431 4.20164 70.4008 3.94392C70.6382 3.70655 71.0248 4.00496 70.8485 4.29659L63.2322 15.4124C62.5946 16.3416 62.6014 17.5624 63.2525 18.478C64.67 20.4922 67.1047 23.924 68.4205 25.7687C68.7799 26.2774 68.4205 26.9759 67.7965 26.9759H66.1824L66.1892 26.9691Z" fill="black"/>
<path d="M35.7239 21.8076C34.8083 24.9138 31.9599 27.5113 27.5312 27.5113C22.5938 27.5113 18.2397 23.9643 18.2397 17.8943C18.2397 12.1499 22.4853 8.41974 27.0903 8.41974C32.6516 8.41974 35.9816 11.9668 35.9816 17.7451C35.9816 18.4369 35.907 19.1694 35.907 19.244H23.0346C23.1431 21.6245 25.1574 23.3404 27.5718 23.3404C29.8371 23.3404 31.085 22.2077 31.6682 20.5936L35.7307 21.8008L35.7239 21.8076ZM31.1867 15.9207C31.1121 14.1303 29.9456 12.3737 27.1649 12.3737C24.642 12.3737 23.2517 14.2727 23.1431 15.9207H31.1935H31.1867Z" fill="black"/>
<path d="M40.0396 17.9687C40.0396 21.2241 42.1624 23.0552 44.6514 23.0552C47.1404 23.0552 48.3816 21.4072 48.7817 20.0169L53.0612 21.4411C52.2541 24.4388 49.4396 27.5111 44.6514 27.5111C39.3478 27.5111 35.1768 23.4893 35.1768 17.9619C35.1768 12.4006 39.2732 8.41269 44.5022 8.41269C49.4057 8.41269 52.1863 11.4511 52.9527 14.4827L48.5986 15.9476C48.1578 14.4488 47.0251 12.9092 44.6107 12.9092C42.1217 12.9092 40.0396 14.6997 40.0396 17.9551" fill="black"/>
<path d="M57.9233 0.484558H53.0605V26.9686H57.9233V0.484558Z" fill="black"/>
<path d="M73.9386 26.9684H69.0758V8.96867H73.7961V11.2C74.8948 9.33491 77.0515 8.49393 78.9912 8.49393C83.4538 8.49393 85.502 11.6747 85.502 15.6287V26.9684H80.6393V16.4697C80.6393 14.4554 79.6491 12.8819 77.3093 12.8819C75.1865 12.8819 73.9454 14.53 73.9454 16.6121V26.9616L73.9386 26.9684Z" fill="black"/>
<path d="M0.497192 26.9686V0.484558H5.29213V10.9426C6.0992 9.66073 8.07279 8.49421 10.7449 8.49421C16.0146 8.49421 19.0462 12.5567 19.0462 17.8942C19.0462 23.347 15.6823 27.4027 10.5618 27.4027C8.07279 27.4027 6.17381 26.304 5.22431 24.7712V26.9686H0.503974H0.497192ZM9.71406 12.8483C7.26572 12.8483 5.21753 14.6388 5.21753 17.9349C5.21753 21.231 7.26572 23.0554 9.71406 23.0554C12.2031 23.0554 14.1767 21.2242 14.1767 17.9349C14.1767 14.6456 12.2031 12.8483 9.71406 12.8483Z" fill="black"/>
<path d="M59.7224 6.46587C59.7224 7.58491 60.6312 8.49371 61.7503 8.49371C62.8693 8.49371 63.7781 7.58491 63.7781 6.46587C63.7781 5.34682 62.8693 4.43802 61.7503 4.43802C60.6312 4.43802 59.7224 5.34682 59.7224 6.46587Z" fill="black"/>
</g>
<defs>
<clipPath id="clip0_42_538">
<rect width="85" height="27.0334" fill="white" transform="translate(0.5 0.483276)"/>
</clipPath>
</defs>
</svg>
