<svg width="136" height="40" viewBox="0 0 136 40" fill="none" xmlns="http://www.w3.org/2000/svg">
<g clip-path="url(#clip0_1_7012)">
<path d="M55.943 0C55.6663 0 55.3819 0.109119 55.1324 0.354638C54.5713 0.919719 39.7973 15.0429 25.9625 28.3048C21.6601 32.4318 17.4434 36.4731 13.7762 40H27.7669C29.6414 40 31.3912 39.0764 32.4512 37.5331L56.9524 1.76929C57.4785 0.89244 56.7497 0 55.943 0Z" fill="black"/>
<path d="M8.30864 31.9447C8.05533 31.9252 7.80981 31.9135 7.5526 31.9018C7.22914 31.8862 6.92127 31.8745 6.62899 31.8472C6.4731 31.8316 6.31332 31.8238 6.14185 31.8199C7.424 32.3889 8.84255 32.7046 10.3351 32.7046C11.6835 32.7046 12.9735 32.4474 14.1543 31.9758C11.9797 32.0187 9.92205 32.0616 8.30864 31.9486V31.9447Z" fill="black"/>
<path d="M9.28298 29.6999C9.46225 29.6415 9.64152 29.5713 9.83247 29.5012C10.1287 29.3921 10.4365 29.2829 10.7522 29.1933C11.1497 29.0842 11.5901 28.9478 12.0577 28.8114C13.9907 28.2229 16.6018 27.4357 19.4077 27.3305C19.5636 27.0499 19.7039 26.7615 19.8325 26.4653C16.746 26.4926 13.8972 27.3617 11.8083 27.993C11.3446 28.1333 10.9081 28.2658 10.5223 28.371C10.1676 28.4684 9.84417 28.5893 9.5285 28.7062C9.48953 28.7179 9.45056 28.7295 9.41159 28.7451C9.87145 28.5074 10.2378 28.2775 10.5028 28.1099L10.8847 27.8761C11.2432 27.6539 11.6174 27.4201 12.0071 27.2253C12.1513 27.1512 12.3071 27.0733 12.4669 26.9914C14.283 26.0678 17.2487 24.5635 20.4677 24.4622C20.5262 24.1777 20.5729 23.8854 20.608 23.597C17.1435 23.6555 13.9985 25.2533 12.0772 26.2276C11.9174 26.3094 11.7693 26.3874 11.6213 26.4575C11.2004 26.6719 10.8107 26.9135 10.4326 27.1473L10.0507 27.3811C8.89327 28.1021 5.63918 30.1325 1.63684 27.9579C1.9642 28.4645 2.33442 28.9439 2.74362 29.3882C4.18166 29.8714 5.50278 29.8909 6.64853 29.696C5.70933 29.9416 4.57137 30.1013 3.30481 29.9493C3.66724 30.2884 4.04916 30.5963 4.45446 30.873C6.29 30.8379 7.78259 30.265 8.72569 29.9026C8.94004 29.8207 9.1232 29.7467 9.27519 29.6999H9.28298Z" fill="black"/>
<path d="M7.91109 31.3523C8.14492 31.3289 8.38264 31.2978 8.64375 31.2549C8.92045 31.2159 9.20883 31.173 9.49332 31.1458C10.2844 31.0756 11.1886 30.947 12.1473 30.8145C13.6165 30.608 15.2649 30.378 17.007 30.265C17.3421 29.9805 17.6578 29.6766 17.954 29.357C15.8066 29.4388 13.7918 29.7233 12.0187 29.9688C11.0678 30.1013 10.1753 30.2299 9.41928 30.2923C9.10361 30.3196 8.80353 30.3663 8.51125 30.4092C8.26963 30.4443 8.04359 30.4755 7.82146 30.4988C7.4941 30.53 7.10829 30.6041 6.65622 30.6898C6.07555 30.8028 5.40914 30.9275 4.66479 31.0094C5.0584 31.2705 5.4676 31.5004 5.89628 31.7031C6.22754 31.6485 6.53541 31.59 6.8238 31.5316C7.24858 31.4497 7.61491 31.3796 7.9033 31.3484L7.91109 31.3523Z" fill="black"/>
<path d="M13.5658 12.5331C12.7864 12.2759 11.9641 12.1122 11.1184 12.0499C10.5417 12.0927 9.97657 12.1044 9.41149 12.0616C8.61648 12.1278 7.84875 12.2915 7.11609 12.5331C8.08647 12.8137 9.09582 12.954 10.1519 12.954C11.2743 12.954 12.4162 12.7942 13.5697 12.5331H13.5658Z" fill="black"/>
<path d="M13.9673 14.3336C14.2596 14.2322 14.5441 14.1153 14.8324 13.9945C14.9922 13.9283 15.152 13.8659 15.3118 13.7997C15.4794 13.7334 15.6508 13.6633 15.8223 13.597C15.5144 13.3983 15.191 13.2229 14.8597 13.0631C14.7467 13.106 14.6376 13.1527 14.5285 13.1995L14.4973 13.2112C14.2167 13.3242 13.9517 13.4372 13.6828 13.5308C11.212 14.4076 8.30478 15.0351 5.15201 13.4138C4.87142 13.5775 4.59862 13.7529 4.33362 13.9478C5.89636 14.8441 7.51366 15.2806 9.24009 15.2806C11.0756 15.2806 12.7319 14.7778 13.9712 14.3414L13.9673 14.3336Z" fill="black"/>
<path d="M8.42949 18.2346C10.4599 18.2346 12.2682 17.5371 13.4529 17.007C13.7062 16.894 13.9556 16.7654 14.1972 16.6368C14.3765 16.5394 14.583 16.4342 14.7818 16.3406C15.1598 16.1614 15.5573 15.9665 15.9938 15.7561C16.5043 15.5067 17.0382 15.2416 17.5955 14.9844C17.3773 14.7662 17.1434 14.5597 16.9057 14.3609C16.4576 14.5752 16.025 14.7896 15.6041 14.9922C15.191 15.1949 14.7935 15.3897 14.4194 15.5651C14.2089 15.6625 14.0063 15.7678 13.7997 15.8769C13.5659 16.0016 13.3399 16.1185 13.106 16.2198C10.5106 17.3734 7.03822 18.3438 3.21515 15.5339C3.08265 15.4365 2.95015 15.3469 2.81765 15.2572C2.61889 15.4677 2.42793 15.6859 2.25256 15.912C2.40455 16.0094 2.55654 16.1146 2.70853 16.2276C4.52068 17.5604 6.44586 18.2307 8.43339 18.2307L8.42949 18.2346Z" fill="black"/>
<path d="M7.72794 21.2198C10.1247 21.2198 12.0226 20.1754 12.9345 19.6766C13.1644 19.5519 13.3866 19.4116 13.6048 19.2713C13.8113 19.1427 14.0257 19.0063 14.2439 18.8855C14.4544 18.7724 14.6726 18.6477 14.9025 18.5191C16.0132 17.8956 17.3772 17.1317 18.8815 16.5316C18.7139 16.2861 18.5346 16.0484 18.3476 15.8184C16.8823 16.4225 15.5689 17.1629 14.4816 17.767C14.2556 17.8956 14.0374 18.0164 13.8269 18.1333C13.5931 18.2619 13.3671 18.4061 13.1371 18.5503C12.9345 18.6789 12.724 18.8114 12.5175 18.9244C11.0093 19.7506 7.00697 21.9447 2.43176 18.3671C2.01866 18.0437 1.60557 17.767 1.18468 17.5215C1.05218 17.7748 0.927469 18.0359 0.814453 18.297C1.18468 18.5113 1.54711 18.7568 1.90565 19.0413C3.74898 20.4833 5.70533 21.2159 7.72014 21.2159L7.72794 21.2198Z" fill="black"/>
<path d="M7.01096 24.2245C7.3656 24.2245 7.72803 24.2011 8.08657 24.1504C9.94549 23.8893 11.3757 23.0475 12.4241 22.3383C12.6189 22.2058 12.806 22.0655 12.993 21.9291C13.2269 21.7576 13.4685 21.5783 13.714 21.4224L13.979 21.251C15.4599 20.304 17.541 18.9789 19.8714 18.3398C19.7584 18.0709 19.6376 17.8059 19.4973 17.5487C17.1162 18.2346 15.0234 19.5674 13.5191 20.53L13.2541 20.7015C12.9852 20.8729 12.7319 21.06 12.4825 21.2432C12.3071 21.3718 12.124 21.5082 11.9408 21.629C10.6119 22.5292 6.57059 25.265 1.67191 21.1925C1.19647 20.795 0.713224 20.4676 0.222187 20.1948C0.155936 20.4949 0.109171 20.795 0.0740967 21.1029C0.428734 21.3172 0.775578 21.5627 1.12242 21.8511C3.01252 23.4217 4.99615 24.2206 7.01096 24.2206V24.2245Z" fill="black"/>
<path d="M11.9057 24.4077L12.0499 24.283C12.4123 23.9751 12.7864 23.6555 13.1722 23.3749C14.696 22.2682 17.3616 20.3274 20.378 19.8831C20.3118 19.5986 20.2299 19.3219 20.1364 19.0491C16.9797 19.5519 14.2478 21.5394 12.6695 22.6851C12.2564 22.9852 11.8667 23.3165 11.4926 23.636L11.3484 23.7607C6.88229 27.5643 2.87605 25.191 0.888524 23.4373C0.59624 23.1762 0.296163 22.9501 -0.0078125 22.7475C0.00777596 23.1372 0.04285 23.5191 0.101307 23.8971C0.175352 23.9517 0.249397 24.0141 0.319545 24.0803C5.43646 28.5932 9.77005 26.2237 11.8979 24.4116L11.9057 24.4077Z" fill="black"/>
<path d="M8.37106 27.802C10.7639 27.1356 12.6735 25.7288 13.4217 24.9961C13.7764 24.6532 14.3531 24.1232 14.8247 23.7607C16.3524 22.5799 18.1879 21.516 20.6626 21.6758C20.6431 21.3835 20.6119 21.0951 20.569 20.8145C17.8683 20.6859 15.8574 21.8745 14.2986 23.0787C13.8036 23.4606 13.1957 24.0179 12.8255 24.3765C12.1863 25 10.382 26.3445 8.15282 26.9642C5.29234 27.7592 2.72024 27.1473 0.510575 25.1403C0.452119 25.0857 0.393662 25.0351 0.335205 24.9844C0.475501 25.5183 0.658666 26.0327 0.876904 26.5277C3.08657 28.1099 5.65477 28.5503 8.37496 27.7942L8.37106 27.802Z" fill="black"/>
<path d="M67.1668 3.13718C67.6812 2.87607 68.2541 2.74747 68.8854 2.74747C69.6298 2.74747 70.3001 2.92673 70.9002 3.28137C71.5004 3.63601 71.9758 4.14653 72.3227 4.80125C72.6695 5.45596 72.841 6.20811 72.841 7.05378C72.841 7.89945 72.6656 8.65549 72.3227 9.3219C71.9758 9.99221 71.5004 10.5066 70.8924 10.8769C70.2845 11.2471 69.6181 11.4341 68.8854 11.4341C68.2307 11.4341 67.6578 11.3055 67.1512 11.0522C66.6485 10.7989 66.2471 10.4716 65.9509 10.074V11.2977H64.2089V0H65.9509V4.14263C66.251 3.73344 66.6524 3.39829 67.1707 3.14108L67.1668 3.13718ZM70.7093 5.55339C70.4715 5.1325 70.1559 4.80904 69.7623 4.5908C69.3686 4.37256 68.9517 4.26344 68.5035 4.26344C68.0553 4.26344 67.65 4.37646 67.2603 4.60249C66.8706 4.82853 66.551 5.15199 66.3133 5.58067C66.0756 6.00935 65.9548 6.51208 65.9548 7.09275C65.9548 7.67342 66.0756 8.18005 66.3133 8.61263C66.551 9.04521 66.8667 9.37256 67.2603 9.5986C67.6539 9.82073 68.067 9.93765 68.5035 9.93765C68.94 9.93765 69.3686 9.82463 69.7623 9.5947C70.1559 9.36477 70.4715 9.02962 70.7093 8.59314C70.947 8.15277 71.0678 7.64614 71.0678 7.06547C71.0678 6.4848 70.947 5.98207 70.7093 5.55729V5.55339Z" fill="black"/>
<path d="M82.2213 7.74359H75.7911C75.8417 8.4139 76.0911 8.95559 76.5393 9.36089C76.9875 9.77009 77.537 9.96884 78.1878 9.96884C79.127 9.96884 79.7895 9.57524 80.1753 8.79191H82.0537C81.8004 9.56744 81.3367 10.1988 80.6703 10.6937C80 11.1886 79.1738 11.4342 78.1878 11.4342C77.3811 11.4342 76.6601 11.2549 76.0288 10.8925C75.3897 10.53 74.8947 10.0234 74.5323 9.36479C74.1699 8.71008 73.9906 7.94624 73.9906 7.08108C73.9906 6.21592 74.166 5.45209 74.5167 4.79737C74.8675 4.14266 75.3624 3.63213 75.9976 3.2775C76.6328 2.92286 77.3655 2.74359 78.1878 2.74359C79.0101 2.74359 79.6882 2.91506 80.3117 3.26191C80.9353 3.60875 81.4185 4.09589 81.7615 4.71943C82.1083 5.34297 82.2837 6.06393 82.2837 6.87843C82.2837 7.20189 82.2603 7.48638 82.2213 7.73969V7.74359ZM80.4637 6.34063C80.4559 5.7015 80.226 5.18708 79.7778 4.79737C79.3297 4.41156 78.7763 4.2167 78.1138 4.2167C77.5136 4.2167 76.9992 4.40766 76.5705 4.78958C76.1418 5.17149 75.8885 5.68591 75.8067 6.34063H80.4637Z" fill="black"/>
<path d="M83.9399 4.80512C84.2907 4.15041 84.7778 3.63989 85.3975 3.28525C86.021 2.93061 86.7303 2.75134 87.537 2.75134C88.5541 2.75134 89.3959 2.99296 90.0662 3.47621C90.7326 3.95945 91.1847 4.64924 91.4185 5.54557H89.5401C89.3881 5.12858 89.1426 4.80123 88.8074 4.5674C88.4684 4.33357 88.0475 4.21666 87.537 4.21666C86.8238 4.21666 86.2548 4.46607 85.8339 4.9727C85.413 5.47543 85.1987 6.1847 85.1987 7.08883C85.1987 7.99296 85.4091 8.70224 85.8339 9.21276C86.2587 9.72328 86.8238 9.9766 87.537 9.9766C88.5463 9.9766 89.2127 9.53232 89.5401 8.64768H91.4185C91.173 9.50115 90.717 10.1831 90.0428 10.6859C89.3725 11.1886 88.5346 11.4419 87.537 11.4419C86.7303 11.4419 86.021 11.2626 85.3975 10.9002C84.7739 10.5378 84.2907 10.0312 83.9399 9.37254C83.5853 8.71783 83.4138 7.95399 83.4138 7.08883C83.4138 6.22367 83.5853 5.45984 83.936 4.80512H83.9399Z" fill="black"/>
<path d="M96.4887 7.10444L100.37 11.3055H98.0163L94.8986 7.68511V11.3055H93.1566V0H94.8986V6.56664L97.954 2.88776H100.366L96.4848 7.10444H96.4887Z" fill="black"/>
<path d="M107.65 3.16443C108.172 3.44112 108.585 3.84642 108.878 4.38812C109.17 4.92592 109.322 5.58064 109.322 6.34447V11.3094H107.596V6.60558C107.596 5.85344 107.405 5.27277 107.03 4.87136C106.656 4.46996 106.138 4.26731 105.491 4.26731C104.844 4.26731 104.322 4.46996 103.94 4.87136C103.558 5.27277 103.367 5.85344 103.367 6.60558V11.3094H101.625V2.88773H103.367V3.85032C103.652 3.50348 104.018 3.23458 104.458 3.03972C104.903 2.84876 105.37 2.74744 105.873 2.74744C106.535 2.74744 107.128 2.88773 107.654 3.16053L107.65 3.16443Z" fill="black"/>
<path d="M65.7054 24.5363C65.0662 24.1738 64.5596 23.6672 64.1933 23.0086C63.827 22.3539 63.6438 21.59 63.6438 20.7249C63.6438 19.8597 63.8309 19.1115 64.2089 18.449C64.5869 17.7865 65.1013 17.2798 65.7521 16.9213C66.4069 16.5667 67.1317 16.3874 67.9384 16.3874C68.7451 16.3874 69.47 16.5667 70.1247 16.9213C70.7794 17.2759 71.2899 17.7865 71.668 18.449C72.046 19.1115 72.233 19.8714 72.233 20.7249C72.233 21.5783 72.0421 22.3383 71.6524 23.0008C71.2666 23.6633 70.7404 24.1738 70.0701 24.5363C69.3998 24.8987 68.6672 25.078 67.8644 25.078C67.0733 25.078 66.3523 24.9026 65.7093 24.5402L65.7054 24.5363ZM69.1192 23.2463C69.5129 23.032 69.8285 22.7124 70.074 22.2837C70.3196 21.855 70.4404 21.3367 70.4404 20.7288C70.4404 20.1208 70.3235 19.6025 70.0857 19.1777C69.8519 18.7529 69.5401 18.4373 69.1543 18.2229C68.7685 18.0086 68.3476 17.8995 67.8994 17.8995C67.4513 17.8995 67.0343 18.0047 66.6563 18.2229C66.2744 18.4412 65.9704 18.7568 65.7443 19.1777C65.5183 19.5986 65.4092 20.1169 65.4092 20.7288C65.4092 21.6368 65.643 22.3344 66.1068 22.8293C66.5705 23.3243 67.1512 23.5698 67.8566 23.5698C68.3125 23.5698 68.7334 23.4607 69.1231 23.2463H69.1192Z" fill="black"/>
<path d="M76.9057 16.781C77.4123 16.516 77.9891 16.3835 78.6321 16.3835C79.3648 16.3835 80.0351 16.5628 80.6391 16.9252C81.2471 17.2876 81.7225 17.7942 82.0694 18.4451C82.4162 19.0998 82.5877 19.8441 82.5877 20.6937C82.5877 21.5433 82.4162 22.2954 82.0694 22.9618C81.7225 23.6321 81.2471 24.1465 80.6391 24.5168C80.0312 24.887 79.3648 25.0741 78.6321 25.0741C77.993 25.0741 77.4201 24.9454 76.9213 24.6843C76.4224 24.4232 76.0132 24.1037 75.6976 23.714V28.94H73.9556V16.5199H75.6976V17.7592C75.9899 17.3734 76.3952 17.046 76.9057 16.781ZM80.456 19.1894C80.2182 18.7685 79.9026 18.4451 79.509 18.2268C79.1153 18.0086 78.6984 17.8995 78.2502 17.8995C77.802 17.8995 77.3967 18.0125 77.007 18.2385C76.6134 18.4606 76.2977 18.788 76.06 19.2167C75.8223 19.6454 75.7015 20.1481 75.7015 20.7288C75.7015 21.3094 75.8223 21.8161 76.06 22.2486C76.2977 22.6812 76.6134 23.0086 77.007 23.2346C77.4006 23.4567 77.8137 23.5737 78.2502 23.5737C78.6867 23.5737 79.1192 23.4606 79.509 23.2307C79.8987 23.0008 80.2182 22.6656 80.456 22.2292C80.6937 21.7888 80.8145 21.2822 80.8145 20.7015C80.8145 20.1208 80.6937 19.6142 80.456 19.1933V19.1894Z" fill="black"/>
<path d="M91.9641 21.3796H85.5339C85.5845 22.0499 85.8339 22.5916 86.2821 22.9969C86.7303 23.4061 87.2798 23.6048 87.9306 23.6048C88.8698 23.6048 89.5323 23.2112 89.9181 22.4279H91.7965C91.5432 23.2034 91.0795 23.8348 90.4131 24.3297C89.7428 24.8246 88.9166 25.0701 87.9306 25.0701C87.1239 25.0701 86.4029 24.8909 85.7716 24.5284C85.1325 24.166 84.6375 23.6594 84.2751 23.0008C83.9127 22.3461 83.7334 21.5822 83.7334 20.7171C83.7334 19.8519 83.9088 19.0881 84.2595 18.4334C84.6103 17.7786 85.1052 17.2681 85.7404 16.9135C86.3795 16.5588 87.1083 16.3796 87.9306 16.3796C88.7529 16.3796 89.431 16.5511 90.0545 16.8979C90.6781 17.2447 91.1613 17.7319 91.5081 18.3554C91.855 18.979 92.0265 19.6999 92.0265 20.5144C92.0265 20.834 92.007 21.1224 91.9641 21.3757V21.3796ZM90.2104 19.9766C90.2026 19.3375 89.9727 18.8231 89.5245 18.4334C89.0763 18.0475 88.523 17.8527 87.8604 17.8527C87.2603 17.8527 86.7459 18.0436 86.3211 18.4256C85.8924 18.8075 85.6352 19.3219 85.5572 19.9766H90.2143H90.2104Z" fill="black"/>
<path d="M99.7661 16.7966C100.292 17.0733 100.701 17.4786 100.994 18.0203C101.286 18.5581 101.438 19.2128 101.438 19.9766V24.9416H99.7116V20.2377C99.7116 19.4856 99.5206 18.9049 99.1465 18.5035C98.7685 18.1021 98.2541 17.8995 97.6032 17.8995C96.9524 17.8995 96.4341 18.1021 96.0522 18.5035C95.6703 18.9049 95.4793 19.4856 95.4793 20.2377V24.9416H93.7373V16.5238H95.4793V17.4864C95.7638 17.1395 96.1301 16.8706 96.5705 16.6758C97.0109 16.4848 97.4824 16.3835 97.9813 16.3835C98.6516 16.3835 99.2439 16.5238 99.7661 16.7966Z" fill="black"/>
<path d="M64.1543 33.3632C64.505 32.7085 64.9922 32.198 65.6118 31.8434C66.2353 31.4887 66.9446 31.3094 67.7513 31.3094C68.7685 31.3094 69.6102 31.5511 70.2805 32.0343C70.947 32.5176 71.399 33.2073 71.6328 34.1037H69.7544C69.6025 33.6867 69.3569 33.3593 69.0218 33.1255C68.6827 32.8917 68.2618 32.7748 67.7513 32.7748C67.0382 32.7748 66.4692 33.0242 66.0483 33.5308C65.6274 34.0335 65.4131 34.7428 65.4131 35.6469C65.4131 36.5511 65.6235 37.2603 66.0483 37.7709C66.4731 38.2814 67.0382 38.5347 67.7513 38.5347C68.7607 38.5347 69.4271 38.0904 69.7544 37.2058H71.6328C71.3873 38.0593 70.9314 38.7412 70.2572 39.244C69.5869 39.7467 68.749 40 67.7513 40C66.9485 40 66.2353 39.8208 65.6118 39.4583C64.9883 39.0959 64.505 38.5893 64.1543 37.9307C63.8035 37.2759 63.6282 36.5121 63.6282 35.6469C63.6282 34.7818 63.8035 34.0218 64.1504 33.3632H64.1543Z" fill="black"/>
<path d="M74.8753 39.4583C74.2362 39.0959 73.7295 38.5893 73.3632 37.9307C72.9969 37.2759 72.8137 36.5121 72.8137 35.6469C72.8137 34.7818 73.0047 34.0335 73.3788 33.371C73.7568 32.7085 74.2712 32.2019 74.9221 31.8434C75.5768 31.4887 76.3016 31.3094 77.1083 31.3094C77.915 31.3094 78.6399 31.4887 79.2946 31.8434C79.9493 32.198 80.4599 32.7085 80.8379 33.371C81.2159 34.0335 81.403 34.7935 81.403 35.6469C81.403 36.5004 81.212 37.2603 80.8223 37.9229C80.4365 38.5854 79.9104 39.0959 79.2401 39.4583C78.5737 39.8208 77.8371 40 77.0343 40C76.2393 40 75.5222 39.8208 74.8792 39.4622L74.8753 39.4583ZM78.2892 38.1684C78.6828 37.954 78.9984 37.6345 79.244 37.2058C79.4895 36.7771 79.6103 36.2588 79.6103 35.6508C79.6103 35.0429 79.4934 34.5246 79.2596 34.0998C79.0257 33.675 78.714 33.3593 78.3281 33.145C77.9423 32.9307 77.5214 32.8215 77.0733 32.8215C76.6251 32.8215 76.2081 32.9268 75.8301 33.145C75.4482 33.3632 75.1481 33.6789 74.9221 34.0998C74.696 34.5207 74.583 35.039 74.583 35.6508C74.583 36.5589 74.8168 37.2565 75.2806 37.7514C75.7444 38.2463 76.3289 38.4918 77.0304 38.4918C77.4825 38.4918 77.9034 38.3827 78.297 38.1684H78.2892Z" fill="black"/>
<path d="M84.8636 28.558V39.8597H83.1216V28.558H84.8636Z" fill="black"/>
<path d="M88.8933 28.558V39.8597H87.1512V28.558H88.8933Z" fill="black"/>
<path d="M98.8386 36.3016H92.4084C92.4629 36.9719 92.7085 37.5136 93.1566 37.9189C93.6048 38.3281 94.1543 38.5269 94.8051 38.5269C95.7443 38.5269 96.4068 38.1333 96.7926 37.35H98.671C98.4177 38.1255 97.9579 38.7568 97.2876 39.2518C96.6173 39.7467 95.7911 39.9922 94.8051 39.9922C93.9984 39.9922 93.2774 39.8129 92.6461 39.4505C92.007 39.0881 91.512 38.5814 91.1496 37.9228C90.7872 37.2681 90.6079 36.5043 90.6079 35.6391C90.6079 34.774 90.7833 34.0101 91.134 33.3554C91.4887 32.7007 91.9797 32.1902 92.6188 31.8355C93.258 31.4809 93.9867 31.3016 94.809 31.3016C95.6313 31.3016 96.3094 31.4731 96.9329 31.82C97.5565 32.1668 98.0397 32.6539 98.3866 33.2775C98.7334 33.901 98.9049 34.622 98.9049 35.4365C98.9049 35.7599 98.8815 36.0444 98.8425 36.2977L98.8386 36.3016ZM97.0849 34.8987C97.0771 34.2595 96.8472 33.7451 96.399 33.3554C95.9509 32.9696 95.3975 32.7747 94.735 32.7747C94.1348 32.7747 93.6204 32.9657 93.1917 33.3476C92.763 33.7295 92.5097 34.244 92.4279 34.8987H97.0888H97.0849Z" fill="black"/>
<path d="M100.561 33.3632C100.912 32.7085 101.399 32.198 102.019 31.8434C102.642 31.4887 103.351 31.3094 104.158 31.3094C105.175 31.3094 106.017 31.5511 106.687 32.0343C107.354 32.5176 107.806 33.2073 108.04 34.1037H106.161C106.009 33.6867 105.764 33.3593 105.429 33.1255C105.093 32.8917 104.669 32.7748 104.158 32.7748C103.445 32.7748 102.876 33.0242 102.455 33.5308C102.03 34.0335 101.82 34.7428 101.82 35.6469C101.82 36.5511 102.03 37.2603 102.455 37.7709C102.876 38.2814 103.445 38.5347 104.158 38.5347C105.168 38.5347 105.834 38.0904 106.161 37.2058H108.04C107.794 38.0593 107.338 38.7412 106.664 39.244C105.994 39.7467 105.156 40 104.158 40C103.351 40 102.642 39.8208 102.019 39.4583C101.395 39.0959 100.912 38.5893 100.561 37.9307C100.21 37.2759 100.035 36.5121 100.035 35.6469C100.035 34.7818 100.207 34.0218 100.557 33.3632H100.561Z" fill="black"/>
<path d="M111.812 32.8683V37.5253C111.812 37.841 111.886 38.067 112.034 38.2073C112.182 38.3437 112.432 38.4139 112.79 38.4139H113.862V39.8636H112.486C111.703 39.8636 111.103 39.6804 110.686 39.3141C110.269 38.9439 110.062 38.3515 110.062 37.5253V32.8683H109.069V31.4458H110.062V29.3531H111.82V31.4458H113.866V32.8683H111.812Z" fill="black"/>
<path d="M115.553 30.0117C115.339 29.7973 115.23 29.5323 115.23 29.2167C115.23 28.901 115.335 28.636 115.553 28.4217C115.768 28.2073 116.033 28.0982 116.348 28.0982C116.664 28.0982 116.914 28.2034 117.128 28.4217C117.342 28.636 117.451 28.901 117.451 29.2167C117.451 29.5323 117.342 29.7973 117.128 30.0117C116.914 30.226 116.652 30.3351 116.348 30.3351C116.044 30.3351 115.768 30.226 115.553 30.0117ZM117.202 31.4458V39.8636H115.46V31.4458H117.202Z" fill="black"/>
<path d="M122.747 38.3048L125.133 31.4459H126.98L123.769 39.8636H121.691L118.496 31.4459H120.359L122.744 38.3048H122.747Z" fill="black"/>
<path d="M135.947 36.3016H129.517C129.567 36.9719 129.817 37.5136 130.265 37.9189C130.713 38.3281 131.263 38.5269 131.913 38.5269C132.853 38.5269 133.515 38.1333 133.901 37.35H135.779C135.526 38.1255 135.066 38.7568 134.396 39.2518C133.73 39.7467 132.899 39.9922 131.913 39.9922C131.107 39.9922 130.386 39.8129 129.755 39.4505C129.115 39.0881 128.617 38.5814 128.258 37.9228C127.896 37.2681 127.716 36.5043 127.716 35.6391C127.716 34.774 127.892 34.0101 128.242 33.3554C128.593 32.7007 129.088 32.1902 129.723 31.8355C130.362 31.4809 131.091 31.3016 131.913 31.3016C132.736 31.3016 133.414 31.4731 134.037 31.82C134.661 32.1668 135.14 32.6539 135.487 33.2775C135.834 33.901 136.005 34.622 136.005 35.4365C136.005 35.7599 135.986 36.0444 135.943 36.2977L135.947 36.3016ZM134.189 34.8987C134.182 34.2595 133.952 33.7451 133.504 33.3554C133.055 32.9696 132.502 32.7747 131.839 32.7747C131.239 32.7747 130.725 32.9657 130.296 33.3476C129.868 33.7295 129.614 34.244 129.532 34.8987H134.189Z" fill="black"/>
</g>
<defs>
<clipPath id="clip0_1_7012">
<rect width="136.009" height="40" fill="white"/>
</clipPath>
</defs>
</svg>
