<svg width="20" height="20" viewBox="0 0 20 20" fill="none" xmlns="http://www.w3.org/2000/svg">
<path d="M7.82277 4.31225C8.82742 2.51001 9.32974 1.60889 10.0807 1.60889C10.8318 1.60889 11.3341 2.51001 12.3387 4.31224L12.5986 4.7785C12.8841 5.29064 13.0269 5.54671 13.2494 5.71567C13.472 5.88463 13.7492 5.94735 14.3036 6.07278L14.8083 6.18698C16.7592 6.62839 17.7346 6.84909 17.9667 7.59538C18.1988 8.34167 17.5338 9.11929 16.2038 10.6745L15.8597 11.0769C15.4818 11.5189 15.2928 11.7398 15.2078 12.0132C15.1228 12.2866 15.1513 12.5814 15.2085 13.1711L15.2605 13.7079C15.4616 15.783 15.5621 16.8205 14.9545 17.2817C14.347 17.743 13.4337 17.3224 11.607 16.4814L11.1345 16.2638C10.6154 16.0248 10.3559 15.9053 10.0807 15.9053C9.80564 15.9053 9.5461 16.0248 9.02703 16.2638L8.55446 16.4814C6.72784 17.3224 5.81452 17.743 5.20695 17.2817C4.59937 16.8205 4.69991 15.783 4.90099 13.7079L4.95301 13.1711C5.01015 12.5814 5.03872 12.2866 4.95371 12.0132C4.86869 11.7398 4.67972 11.5189 4.30178 11.0769L3.95769 10.6746C2.6277 9.1193 1.9627 8.34167 2.19477 7.59538C2.42685 6.84909 3.4023 6.62839 5.3532 6.18698L5.85792 6.07278C6.4123 5.94735 6.68949 5.88463 6.91206 5.71567C7.13463 5.54671 7.27737 5.29065 7.56286 4.77851L7.82277 4.31225Z" fill="#4682BB"/>
</svg>
