<svg width="86" height="28" viewBox="0 0 86 28" fill="none" xmlns="http://www.w3.org/2000/svg">
<path d="M66.1892 27.3188C65.4363 27.3188 64.731 26.9526 64.297 26.3286C62.9338 24.3754 59.9971 20.2044 59.8343 19.967C59.7733 19.8788 59.6512 19.8721 59.5766 19.9467L57.2639 22.3882V16.9219C57.4742 16.6506 70.1431 4.55131 70.4008 4.29359C70.6382 4.05622 71.0248 4.35463 70.8485 4.64626L63.2322 15.7621C62.5946 16.6913 62.6014 17.912 63.2525 18.8276C64.67 20.8419 67.1047 24.2736 68.4205 26.1184C68.7799 26.627 68.4205 27.3256 67.7965 27.3256H66.1824L66.1892 27.3188Z" fill="white"/>
<path d="M35.7239 22.1574C34.8083 25.2636 31.9598 27.8611 27.5311 27.8611C22.5937 27.8611 18.2396 24.3141 18.2396 18.2441C18.2396 12.4997 22.4852 8.76953 27.0903 8.76953C32.6516 8.76953 35.9816 12.3166 35.9816 18.0949C35.9816 18.7867 35.907 19.5192 35.907 19.5938H23.0346C23.1431 21.9743 25.1574 23.6901 27.5718 23.6901C29.837 23.6901 31.0849 22.5575 31.6682 20.9434L35.7306 22.1506L35.7239 22.1574ZM31.1866 16.2705C31.112 14.4801 29.9455 12.7235 27.1649 12.7235C24.6419 12.7235 23.2516 14.6225 23.1431 16.2705H31.1934H31.1866Z" fill="white"/>
<path d="M40.0395 18.3184C40.0395 21.5738 42.1623 23.405 44.6513 23.405C47.1404 23.405 48.3815 21.7569 48.7816 20.3666L53.0611 21.7909C52.2541 24.7885 49.4395 27.8608 44.6513 27.8608C39.3477 27.8608 35.1768 23.839 35.1768 18.3116C35.1768 12.7503 39.2731 8.76245 44.5021 8.76245C49.4056 8.76245 52.1863 11.8008 52.9526 14.8324L48.5985 16.2974C48.1577 14.7985 47.0251 13.259 44.6107 13.259C42.1216 13.259 40.0395 15.0495 40.0395 18.3049" fill="white"/>
<path d="M57.9233 0.834229H53.0605V27.3183H57.9233V0.834229Z" fill="white"/>
<path d="M73.9386 27.3179H69.0758V9.31825H73.7961V11.5496C74.8948 9.68449 77.0515 8.84351 78.9912 8.84351C83.4538 8.84351 85.502 12.0243 85.502 15.9783V27.3179H80.6393V16.8192C80.6393 14.805 79.6491 13.2315 77.3093 13.2315C75.1865 13.2315 73.9454 14.8796 73.9454 16.9617V27.3112L73.9386 27.3179Z" fill="white"/>
<path d="M0.497192 27.3183V0.834229H5.29213V11.2922C6.0992 10.0104 8.07279 8.84388 10.7449 8.84388C16.0146 8.84388 19.0462 12.9064 19.0462 18.2439C19.0462 23.6967 15.6823 27.7524 10.5618 27.7524C8.07279 27.7524 6.17381 26.6537 5.22431 25.1209V27.3183H0.503974H0.497192ZM9.71406 13.198C7.26572 13.198 5.21753 14.9885 5.21753 18.2846C5.21753 21.5807 7.26572 23.405 9.71406 23.405C12.2031 23.405 14.1767 21.5739 14.1767 18.2846C14.1767 14.9952 12.2031 13.198 9.71406 13.198Z" fill="white"/>
<path d="M59.7224 6.81544C59.7224 7.93449 60.6312 8.84329 61.7503 8.84329C62.8693 8.84329 63.7781 7.93449 63.7781 6.81544C63.7781 5.6964 62.8693 4.7876 61.7503 4.7876C60.6312 4.7876 59.7224 5.6964 59.7224 6.81544Z" fill="white"/>
</svg>
